<mxfile host="app.diagrams.net" modified="2021-05-10T07:27:21.655Z" agent="5.0 (Windows NT 10.0; Win64; x64) AppleWebKit/537.36 (KHTML, like Gecko) Chrome/90.0.4430.93 Safari/537.36" etag="SFllfkLfL_wT5HfGsKC3" version="14.6.9" type="github">
  <diagram id="C5RBs43oDa-KdzZeNtuy" name="Page-1">
    <mxGraphModel dx="2206" dy="982" grid="1" gridSize="10" guides="1" tooltips="1" connect="1" arrows="1" fold="1" page="1" pageScale="1" pageWidth="827" pageHeight="1169" math="0" shadow="0">
      <root>
        <mxCell id="WIyWlLk6GJQsqaUBKTNV-0" />
        <mxCell id="WIyWlLk6GJQsqaUBKTNV-1" parent="WIyWlLk6GJQsqaUBKTNV-0" />
        <mxCell id="Bdx5gOvKSavNQ9ct2Pfe-2" value="" style="edgeStyle=orthogonalEdgeStyle;rounded=0;orthogonalLoop=1;jettySize=auto;html=1;" edge="1" parent="WIyWlLk6GJQsqaUBKTNV-1" source="WIyWlLk6GJQsqaUBKTNV-3" target="Bdx5gOvKSavNQ9ct2Pfe-0">
          <mxGeometry relative="1" as="geometry" />
        </mxCell>
        <mxCell id="WIyWlLk6GJQsqaUBKTNV-3" value="开始" style="rounded=1;whiteSpace=wrap;html=1;fontSize=12;glass=0;strokeWidth=1;shadow=0;" parent="WIyWlLk6GJQsqaUBKTNV-1" vertex="1">
          <mxGeometry x="160" y="70" width="120" height="40" as="geometry" />
        </mxCell>
        <mxCell id="Bdx5gOvKSavNQ9ct2Pfe-4" value="" style="edgeStyle=orthogonalEdgeStyle;rounded=0;orthogonalLoop=1;jettySize=auto;html=1;" edge="1" parent="WIyWlLk6GJQsqaUBKTNV-1" source="Bdx5gOvKSavNQ9ct2Pfe-0" target="Bdx5gOvKSavNQ9ct2Pfe-3">
          <mxGeometry relative="1" as="geometry" />
        </mxCell>
        <mxCell id="Bdx5gOvKSavNQ9ct2Pfe-0" value="点击app进入&lt;br&gt;计算器界面" style="rounded=0;whiteSpace=wrap;html=1;" vertex="1" parent="WIyWlLk6GJQsqaUBKTNV-1">
          <mxGeometry x="160" y="140" width="120" height="60" as="geometry" />
        </mxCell>
        <mxCell id="Bdx5gOvKSavNQ9ct2Pfe-11" value="" style="edgeStyle=orthogonalEdgeStyle;rounded=0;orthogonalLoop=1;jettySize=auto;html=1;" edge="1" parent="WIyWlLk6GJQsqaUBKTNV-1" source="Bdx5gOvKSavNQ9ct2Pfe-3" target="Bdx5gOvKSavNQ9ct2Pfe-6">
          <mxGeometry relative="1" as="geometry" />
        </mxCell>
        <mxCell id="Bdx5gOvKSavNQ9ct2Pfe-3" value="点击按钮输入math表达式" style="rounded=0;whiteSpace=wrap;html=1;" vertex="1" parent="WIyWlLk6GJQsqaUBKTNV-1">
          <mxGeometry x="145" y="250" width="150" height="40" as="geometry" />
        </mxCell>
        <mxCell id="Bdx5gOvKSavNQ9ct2Pfe-12" value="" style="edgeStyle=orthogonalEdgeStyle;rounded=0;orthogonalLoop=1;jettySize=auto;html=1;" edge="1" parent="WIyWlLk6GJQsqaUBKTNV-1" source="Bdx5gOvKSavNQ9ct2Pfe-6" target="Bdx5gOvKSavNQ9ct2Pfe-7">
          <mxGeometry relative="1" as="geometry" />
        </mxCell>
        <mxCell id="Bdx5gOvKSavNQ9ct2Pfe-6" value="完成String类型的Math表达式输入" style="shape=parallelogram;perimeter=parallelogramPerimeter;whiteSpace=wrap;html=1;fixedSize=1;" vertex="1" parent="WIyWlLk6GJQsqaUBKTNV-1">
          <mxGeometry x="105" y="320" width="230" height="60" as="geometry" />
        </mxCell>
        <mxCell id="Bdx5gOvKSavNQ9ct2Pfe-13" value="" style="edgeStyle=orthogonalEdgeStyle;rounded=0;orthogonalLoop=1;jettySize=auto;html=1;" edge="1" parent="WIyWlLk6GJQsqaUBKTNV-1" source="Bdx5gOvKSavNQ9ct2Pfe-7" target="Bdx5gOvKSavNQ9ct2Pfe-9">
          <mxGeometry relative="1" as="geometry" />
        </mxCell>
        <mxCell id="Bdx5gOvKSavNQ9ct2Pfe-7" value="点击等号" style="rounded=0;whiteSpace=wrap;html=1;" vertex="1" parent="WIyWlLk6GJQsqaUBKTNV-1">
          <mxGeometry x="160" y="410" width="120" height="60" as="geometry" />
        </mxCell>
        <mxCell id="Bdx5gOvKSavNQ9ct2Pfe-17" style="edgeStyle=orthogonalEdgeStyle;rounded=0;orthogonalLoop=1;jettySize=auto;html=1;exitX=0.5;exitY=1;exitDx=0;exitDy=0;entryX=0.5;entryY=0;entryDx=0;entryDy=0;" edge="1" parent="WIyWlLk6GJQsqaUBKTNV-1" source="Bdx5gOvKSavNQ9ct2Pfe-9" target="Bdx5gOvKSavNQ9ct2Pfe-14">
          <mxGeometry relative="1" as="geometry" />
        </mxCell>
        <mxCell id="Bdx5gOvKSavNQ9ct2Pfe-20" style="edgeStyle=orthogonalEdgeStyle;rounded=0;orthogonalLoop=1;jettySize=auto;html=1;exitX=0.5;exitY=1;exitDx=0;exitDy=0;entryX=0.5;entryY=0;entryDx=0;entryDy=0;" edge="1" parent="WIyWlLk6GJQsqaUBKTNV-1" source="Bdx5gOvKSavNQ9ct2Pfe-9" target="Bdx5gOvKSavNQ9ct2Pfe-15">
          <mxGeometry relative="1" as="geometry" />
        </mxCell>
        <mxCell id="Bdx5gOvKSavNQ9ct2Pfe-9" value="&amp;nbsp;Math中出现&lt;br&gt;除以0的情况" style="rhombus;whiteSpace=wrap;html=1;shadow=0;fontFamily=Helvetica;fontSize=12;align=center;strokeWidth=1;spacing=6;spacingTop=-4;" vertex="1" parent="WIyWlLk6GJQsqaUBKTNV-1">
          <mxGeometry x="165" y="500" width="110" height="90" as="geometry" />
        </mxCell>
        <mxCell id="Bdx5gOvKSavNQ9ct2Pfe-26" style="edgeStyle=orthogonalEdgeStyle;rounded=0;orthogonalLoop=1;jettySize=auto;html=1;exitX=0.5;exitY=1;exitDx=0;exitDy=0;entryX=0.5;entryY=0;entryDx=0;entryDy=0;" edge="1" parent="WIyWlLk6GJQsqaUBKTNV-1" source="Bdx5gOvKSavNQ9ct2Pfe-14" target="Bdx5gOvKSavNQ9ct2Pfe-22">
          <mxGeometry relative="1" as="geometry" />
        </mxCell>
        <mxCell id="Bdx5gOvKSavNQ9ct2Pfe-14" value="输出Math Error" style="rounded=0;whiteSpace=wrap;html=1;" vertex="1" parent="WIyWlLk6GJQsqaUBKTNV-1">
          <mxGeometry x="55" y="650" width="120" height="60" as="geometry" />
        </mxCell>
        <mxCell id="Bdx5gOvKSavNQ9ct2Pfe-27" style="edgeStyle=orthogonalEdgeStyle;rounded=0;orthogonalLoop=1;jettySize=auto;html=1;exitX=0.5;exitY=1;exitDx=0;exitDy=0;entryX=0.5;entryY=0;entryDx=0;entryDy=0;" edge="1" parent="WIyWlLk6GJQsqaUBKTNV-1" source="Bdx5gOvKSavNQ9ct2Pfe-15" target="Bdx5gOvKSavNQ9ct2Pfe-22">
          <mxGeometry relative="1" as="geometry">
            <mxPoint x="220" y="760" as="targetPoint" />
          </mxGeometry>
        </mxCell>
        <mxCell id="Bdx5gOvKSavNQ9ct2Pfe-15" value="完成计算&lt;br&gt;输出计算结果" style="rounded=0;whiteSpace=wrap;html=1;" vertex="1" parent="WIyWlLk6GJQsqaUBKTNV-1">
          <mxGeometry x="270" y="650" width="120" height="60" as="geometry" />
        </mxCell>
        <mxCell id="Bdx5gOvKSavNQ9ct2Pfe-41" style="edgeStyle=orthogonalEdgeStyle;rounded=0;orthogonalLoop=1;jettySize=auto;html=1;exitX=1;exitY=0.5;exitDx=0;exitDy=0;entryX=0;entryY=0.5;entryDx=0;entryDy=0;" edge="1" parent="WIyWlLk6GJQsqaUBKTNV-1" source="Bdx5gOvKSavNQ9ct2Pfe-22" target="Bdx5gOvKSavNQ9ct2Pfe-34">
          <mxGeometry relative="1" as="geometry" />
        </mxCell>
        <mxCell id="Bdx5gOvKSavNQ9ct2Pfe-42" style="edgeStyle=orthogonalEdgeStyle;rounded=0;orthogonalLoop=1;jettySize=auto;html=1;exitX=0;exitY=0.5;exitDx=0;exitDy=0;" edge="1" parent="WIyWlLk6GJQsqaUBKTNV-1" source="Bdx5gOvKSavNQ9ct2Pfe-22">
          <mxGeometry relative="1" as="geometry">
            <mxPoint x="430" y="800" as="targetPoint" />
            <Array as="points">
              <mxPoint x="40" y="800" />
              <mxPoint x="40" y="220" />
              <mxPoint x="410" y="220" />
              <mxPoint x="410" y="800" />
            </Array>
          </mxGeometry>
        </mxCell>
        <mxCell id="Bdx5gOvKSavNQ9ct2Pfe-22" value="完成一次计算" style="rounded=0;whiteSpace=wrap;html=1;" vertex="1" parent="WIyWlLk6GJQsqaUBKTNV-1">
          <mxGeometry x="160" y="770" width="120" height="60" as="geometry" />
        </mxCell>
        <mxCell id="Bdx5gOvKSavNQ9ct2Pfe-23" value="是" style="text;html=1;strokeColor=none;fillColor=none;align=center;verticalAlign=middle;whiteSpace=wrap;rounded=0;" vertex="1" parent="WIyWlLk6GJQsqaUBKTNV-1">
          <mxGeometry x="145" y="600" width="40" height="20" as="geometry" />
        </mxCell>
        <mxCell id="Bdx5gOvKSavNQ9ct2Pfe-24" value="否" style="text;html=1;strokeColor=none;fillColor=none;align=center;verticalAlign=middle;whiteSpace=wrap;rounded=0;" vertex="1" parent="WIyWlLk6GJQsqaUBKTNV-1">
          <mxGeometry x="260" y="600" width="40" height="20" as="geometry" />
        </mxCell>
        <mxCell id="Bdx5gOvKSavNQ9ct2Pfe-37" value="" style="edgeStyle=orthogonalEdgeStyle;rounded=0;orthogonalLoop=1;jettySize=auto;html=1;" edge="1" parent="WIyWlLk6GJQsqaUBKTNV-1" source="Bdx5gOvKSavNQ9ct2Pfe-28" target="Bdx5gOvKSavNQ9ct2Pfe-29">
          <mxGeometry relative="1" as="geometry" />
        </mxCell>
        <mxCell id="Bdx5gOvKSavNQ9ct2Pfe-28" value="点击保存" style="rounded=0;whiteSpace=wrap;html=1;" vertex="1" parent="WIyWlLk6GJQsqaUBKTNV-1">
          <mxGeometry x="460" y="340" width="120" height="60" as="geometry" />
        </mxCell>
        <mxCell id="Bdx5gOvKSavNQ9ct2Pfe-47" style="edgeStyle=orthogonalEdgeStyle;rounded=0;orthogonalLoop=1;jettySize=auto;html=1;exitX=1;exitY=0.5;exitDx=0;exitDy=0;entryX=1;entryY=0.5;entryDx=0;entryDy=0;" edge="1" parent="WIyWlLk6GJQsqaUBKTNV-1" source="Bdx5gOvKSavNQ9ct2Pfe-29" target="Bdx5gOvKSavNQ9ct2Pfe-34">
          <mxGeometry relative="1" as="geometry" />
        </mxCell>
        <mxCell id="Bdx5gOvKSavNQ9ct2Pfe-29" value="将文本区中的全部计算&lt;br&gt;过程保存到手机sd卡的math.txt文件" style="rounded=0;whiteSpace=wrap;html=1;" vertex="1" parent="WIyWlLk6GJQsqaUBKTNV-1">
          <mxGeometry x="646" y="340" width="140" height="60" as="geometry" />
        </mxCell>
        <mxCell id="Bdx5gOvKSavNQ9ct2Pfe-38" value="" style="edgeStyle=orthogonalEdgeStyle;rounded=0;orthogonalLoop=1;jettySize=auto;html=1;" edge="1" parent="WIyWlLk6GJQsqaUBKTNV-1" source="Bdx5gOvKSavNQ9ct2Pfe-30" target="Bdx5gOvKSavNQ9ct2Pfe-31">
          <mxGeometry relative="1" as="geometry" />
        </mxCell>
        <mxCell id="Bdx5gOvKSavNQ9ct2Pfe-30" value="点击复制" style="rounded=0;whiteSpace=wrap;html=1;" vertex="1" parent="WIyWlLk6GJQsqaUBKTNV-1">
          <mxGeometry x="460" y="450" width="120" height="60" as="geometry" />
        </mxCell>
        <mxCell id="Bdx5gOvKSavNQ9ct2Pfe-31" value="将文本区中选中的文本&lt;br&gt;复制到剪贴本" style="rounded=0;whiteSpace=wrap;html=1;" vertex="1" parent="WIyWlLk6GJQsqaUBKTNV-1">
          <mxGeometry x="646" y="450" width="140" height="60" as="geometry" />
        </mxCell>
        <mxCell id="Bdx5gOvKSavNQ9ct2Pfe-39" value="" style="edgeStyle=orthogonalEdgeStyle;rounded=0;orthogonalLoop=1;jettySize=auto;html=1;" edge="1" parent="WIyWlLk6GJQsqaUBKTNV-1" source="Bdx5gOvKSavNQ9ct2Pfe-32" target="Bdx5gOvKSavNQ9ct2Pfe-33">
          <mxGeometry relative="1" as="geometry" />
        </mxCell>
        <mxCell id="Bdx5gOvKSavNQ9ct2Pfe-32" value="点击清除" style="rounded=0;whiteSpace=wrap;html=1;" vertex="1" parent="WIyWlLk6GJQsqaUBKTNV-1">
          <mxGeometry x="460" y="560" width="120" height="60" as="geometry" />
        </mxCell>
        <mxCell id="Bdx5gOvKSavNQ9ct2Pfe-33" value="清除文本区的全部内容" style="rounded=0;whiteSpace=wrap;html=1;" vertex="1" parent="WIyWlLk6GJQsqaUBKTNV-1">
          <mxGeometry x="646" y="560" width="140" height="60" as="geometry" />
        </mxCell>
        <mxCell id="Bdx5gOvKSavNQ9ct2Pfe-40" value="" style="edgeStyle=orthogonalEdgeStyle;rounded=0;orthogonalLoop=1;jettySize=auto;html=1;" edge="1" parent="WIyWlLk6GJQsqaUBKTNV-1" source="Bdx5gOvKSavNQ9ct2Pfe-34" target="Bdx5gOvKSavNQ9ct2Pfe-36">
          <mxGeometry relative="1" as="geometry" />
        </mxCell>
        <mxCell id="Bdx5gOvKSavNQ9ct2Pfe-34" value="点击退出" style="rounded=0;whiteSpace=wrap;html=1;" vertex="1" parent="WIyWlLk6GJQsqaUBKTNV-1">
          <mxGeometry x="560" y="770" width="120" height="60" as="geometry" />
        </mxCell>
        <mxCell id="Bdx5gOvKSavNQ9ct2Pfe-36" value="结束" style="rounded=1;whiteSpace=wrap;html=1;fontSize=12;glass=0;strokeWidth=1;shadow=0;" vertex="1" parent="WIyWlLk6GJQsqaUBKTNV-1">
          <mxGeometry x="560" y="870" width="120" height="40" as="geometry" />
        </mxCell>
        <mxCell id="Bdx5gOvKSavNQ9ct2Pfe-44" value="" style="endArrow=classic;html=1;" edge="1" parent="WIyWlLk6GJQsqaUBKTNV-1">
          <mxGeometry width="50" height="50" relative="1" as="geometry">
            <mxPoint x="410" y="370" as="sourcePoint" />
            <mxPoint x="460" y="369.71" as="targetPoint" />
          </mxGeometry>
        </mxCell>
        <mxCell id="Bdx5gOvKSavNQ9ct2Pfe-45" value="" style="endArrow=classic;html=1;" edge="1" parent="WIyWlLk6GJQsqaUBKTNV-1">
          <mxGeometry width="50" height="50" relative="1" as="geometry">
            <mxPoint x="410" y="480" as="sourcePoint" />
            <mxPoint x="460" y="479.71000000000004" as="targetPoint" />
          </mxGeometry>
        </mxCell>
        <mxCell id="Bdx5gOvKSavNQ9ct2Pfe-46" value="" style="endArrow=classic;html=1;" edge="1" parent="WIyWlLk6GJQsqaUBKTNV-1">
          <mxGeometry width="50" height="50" relative="1" as="geometry">
            <mxPoint x="410" y="590" as="sourcePoint" />
            <mxPoint x="460" y="589.71" as="targetPoint" />
          </mxGeometry>
        </mxCell>
        <mxCell id="Bdx5gOvKSavNQ9ct2Pfe-48" value="" style="endArrow=none;html=1;" edge="1" parent="WIyWlLk6GJQsqaUBKTNV-1">
          <mxGeometry width="50" height="50" relative="1" as="geometry">
            <mxPoint x="786" y="479.8" as="sourcePoint" />
            <mxPoint x="806" y="479.8" as="targetPoint" />
          </mxGeometry>
        </mxCell>
        <mxCell id="Bdx5gOvKSavNQ9ct2Pfe-49" value="" style="endArrow=none;html=1;" edge="1" parent="WIyWlLk6GJQsqaUBKTNV-1">
          <mxGeometry width="50" height="50" relative="1" as="geometry">
            <mxPoint x="786" y="589.8" as="sourcePoint" />
            <mxPoint x="806" y="589.8" as="targetPoint" />
          </mxGeometry>
        </mxCell>
      </root>
    </mxGraphModel>
  </diagram>
</mxfile>
